<mxfile host="app.diagrams.net" agent="Mozilla/5.0 (Macintosh; Intel Mac OS X 10_15_7) AppleWebKit/537.36 (KHTML, like Gecko) Chrome/131.0.0.0 Safari/537.36" version="25.0.3">
  <diagram id="prtHgNgQTEPvFCAcTncT" name="Page-1">
    <mxGraphModel dx="3034" dy="872" grid="1" gridSize="10" guides="1" tooltips="1" connect="1" arrows="1" fold="1" page="1" pageScale="1" pageWidth="827" pageHeight="1169" math="0" shadow="0">
      <root>
        <mxCell id="0" />
        <mxCell id="1" parent="0" />
        <mxCell id="dNxyNK7c78bLwvsdeMH5-11" value="Orgchart" style="swimlane;html=1;startSize=20;horizontal=1;containerType=tree;glass=0;direction=south;" parent="1" vertex="1">
          <mxGeometry x="-230" y="20" width="1480" height="1040" as="geometry" />
        </mxCell>
        <UserObject label="Tech Stack" name="Tessa Miller" position="CFO" location="Office 1" email="me@example.com" placeholders="1" link="https://www.draw.io" id="dNxyNK7c78bLwvsdeMH5-12">
          <mxCell style="label;image=https://cdn3.iconfinder.com/data/icons/user-avatars-1/512/users-3-128.png;whiteSpace=wrap;html=1;rounded=0;glass=0;treeMoving=1;treeFolding=1;" parent="dNxyNK7c78bLwvsdeMH5-11" vertex="1">
            <mxGeometry x="190" y="20" width="180" height="70" as="geometry" />
          </mxCell>
        </UserObject>
        <mxCell id="dNxyNK7c78bLwvsdeMH5-13" value="" style="endArrow=blockThin;endFill=1;fontSize=11;edgeStyle=elbowEdgeStyle;elbow=vertical;rounded=0;fillColor=#dae8fc;strokeColor=#6c8ebf;entryX=0.5;entryY=0;entryDx=0;entryDy=0;" parent="dNxyNK7c78bLwvsdeMH5-11" source="dNxyNK7c78bLwvsdeMH5-12" target="XMl_mr6YjIk043C_CZg--44" edge="1">
          <mxGeometry relative="1" as="geometry">
            <mxPoint y="130" as="targetPoint" />
          </mxGeometry>
        </mxCell>
        <mxCell id="dNxyNK7c78bLwvsdeMH5-17" value="" style="endArrow=blockThin;endFill=1;fontSize=11;edgeStyle=elbowEdgeStyle;elbow=vertical;rounded=0;fillColor=#f8cecc;strokeColor=#b85450;entryX=0.5;entryY=0;entryDx=0;entryDy=0;" parent="dNxyNK7c78bLwvsdeMH5-11" source="dNxyNK7c78bLwvsdeMH5-12" target="XMl_mr6YjIk043C_CZg--45" edge="1">
          <mxGeometry relative="1" as="geometry">
            <mxPoint x="580" y="130" as="targetPoint" />
            <Array as="points">
              <mxPoint x="400" y="110" />
            </Array>
          </mxGeometry>
        </mxCell>
        <mxCell id="XMl_mr6YjIk043C_CZg--3" value="&lt;br&gt;&lt;div&gt;&lt;span style=&quot;background-color: initial;&quot;&gt;Use Firebase Authentication widgets like &lt;/span&gt;&lt;code style=&quot;background-color: initial;&quot;&gt;SignInScreen&lt;/code&gt;&lt;span style=&quot;background-color: initial;&quot;&gt; for a quick UI setup.&lt;br&gt;&lt;/span&gt;&lt;br&gt;&lt;/div&gt;" style="whiteSpace=wrap;html=1;aspect=fixed;" vertex="1" parent="dNxyNK7c78bLwvsdeMH5-11">
          <mxGeometry x="70" y="430" width="210" height="210" as="geometry" />
        </mxCell>
        <UserObject label="Front End" name="Alison Donovan" position="System Admin" location="Office 3" email="me@example.com" placeholders="1" link="https://www.draw.io" id="XMl_mr6YjIk043C_CZg--44">
          <mxCell style="label;image=https://cdn3.iconfinder.com/data/icons/user-avatars-1/512/users-2-128.png;whiteSpace=wrap;html=1;rounded=0;glass=0;" vertex="1" parent="dNxyNK7c78bLwvsdeMH5-11">
            <mxGeometry x="70" y="130" width="180" height="80" as="geometry" />
          </mxCell>
        </UserObject>
        <UserObject label="Back End" name="Alison Donovan" position="System Admin" location="Office 3" email="me@example.com" placeholders="1" link="https://www.draw.io" id="XMl_mr6YjIk043C_CZg--45">
          <mxCell style="label;image=https://cdn3.iconfinder.com/data/icons/user-avatars-1/512/users-2-128.png;whiteSpace=wrap;html=1;rounded=0;glass=0;" vertex="1" parent="dNxyNK7c78bLwvsdeMH5-11">
            <mxGeometry x="310" y="130" width="180" height="80" as="geometry" />
          </mxCell>
        </UserObject>
        <mxCell id="XMl_mr6YjIk043C_CZg--49" style="edgeStyle=orthogonalEdgeStyle;rounded=0;orthogonalLoop=1;jettySize=auto;html=1;fillColor=#dae8fc;strokeColor=#6c8ebf;" edge="1" parent="dNxyNK7c78bLwvsdeMH5-11" source="XMl_mr6YjIk043C_CZg--46">
          <mxGeometry relative="1" as="geometry">
            <mxPoint x="175" y="430" as="targetPoint" />
            <Array as="points">
              <mxPoint x="260" y="390" />
              <mxPoint x="175" y="390" />
              <mxPoint x="175" y="430" />
            </Array>
          </mxGeometry>
        </mxCell>
        <mxCell id="XMl_mr6YjIk043C_CZg--50" style="edgeStyle=orthogonalEdgeStyle;rounded=0;orthogonalLoop=1;jettySize=auto;html=1;entryX=0.5;entryY=0;entryDx=0;entryDy=0;fillColor=#f8cecc;strokeColor=#b85450;" edge="1" parent="dNxyNK7c78bLwvsdeMH5-11" source="XMl_mr6YjIk043C_CZg--46" target="XMl_mr6YjIk043C_CZg--47">
          <mxGeometry relative="1" as="geometry">
            <Array as="points">
              <mxPoint x="310" y="390" />
              <mxPoint x="400" y="390" />
            </Array>
          </mxGeometry>
        </mxCell>
        <UserObject label="User Authentication" name="Alison Donovan" position="System Admin" location="Office 3" email="me@example.com" placeholders="1" link="https://www.draw.io" id="XMl_mr6YjIk043C_CZg--46">
          <mxCell style="label;image=https://cdn3.iconfinder.com/data/icons/user-avatars-1/512/users-2-128.png;whiteSpace=wrap;html=1;rounded=0;glass=0;" vertex="1" parent="dNxyNK7c78bLwvsdeMH5-11">
            <mxGeometry x="190" y="270" width="180" height="80" as="geometry" />
          </mxCell>
        </UserObject>
        <mxCell id="XMl_mr6YjIk043C_CZg--47" value="&lt;span style=&quot;background-color: initial;&quot;&gt;Use &lt;/span&gt;&lt;strong style=&quot;background-color: initial;&quot;&gt;Firebase Authentication&lt;/strong&gt;&lt;span style=&quot;background-color: initial;&quot;&gt;: Itâ€™s beginner-friendly and integrates well with Flutter.&amp;nbsp;&lt;/span&gt;&lt;div&gt;&lt;span style=&quot;background-color: initial;&quot;&gt;&lt;br&gt;&lt;/span&gt;&lt;/div&gt;&lt;div&gt;&lt;span style=&quot;background-color: initial;&quot;&gt;It supports email/password, Google, Facebook, and other popular sign-in methods.&lt;/span&gt;&lt;span style=&quot;background-color: initial;&quot;&gt;Install the &lt;/span&gt;&lt;code style=&quot;background-color: initial;&quot;&gt;firebase_auth&lt;/code&gt;&lt;span style=&quot;background-color: initial;&quot;&gt; Flutter package.&lt;/span&gt;&lt;/div&gt;&lt;div&gt;&lt;span style=&quot;background-color: initial;&quot;&gt;&lt;br&gt;&lt;/span&gt;&lt;/div&gt;&lt;div&gt;&lt;span style=&quot;background-color: initial;&quot;&gt;Follow the Firebase setup guide for Flutter.&lt;/span&gt;&lt;/div&gt;" style="whiteSpace=wrap;html=1;aspect=fixed;" vertex="1" parent="dNxyNK7c78bLwvsdeMH5-11">
          <mxGeometry x="295" y="430" width="210" height="210" as="geometry" />
        </mxCell>
        <mxCell id="XMl_mr6YjIk043C_CZg--51" value="&lt;br&gt;&lt;div&gt;&lt;span style=&quot;background-color: initial;&quot;&gt;Use Firebase Authentication widgets like &lt;/span&gt;&lt;code style=&quot;background-color: initial;&quot;&gt;SignInScreen&lt;/code&gt;&lt;span style=&quot;background-color: initial;&quot;&gt; for a quick UI setup.&lt;br&gt;&lt;/span&gt;&lt;br&gt;&lt;/div&gt;" style="whiteSpace=wrap;html=1;aspect=fixed;" vertex="1" parent="dNxyNK7c78bLwvsdeMH5-11">
          <mxGeometry x="570" y="430" width="210" height="210" as="geometry" />
        </mxCell>
        <mxCell id="XMl_mr6YjIk043C_CZg--52" style="edgeStyle=orthogonalEdgeStyle;rounded=0;orthogonalLoop=1;jettySize=auto;html=1;entryX=0.5;entryY=0;entryDx=0;entryDy=0;fillColor=#f8cecc;strokeColor=#b85450;" edge="1" parent="dNxyNK7c78bLwvsdeMH5-11" source="XMl_mr6YjIk043C_CZg--53" target="XMl_mr6YjIk043C_CZg--54">
          <mxGeometry relative="1" as="geometry">
            <Array as="points">
              <mxPoint x="800" y="390" />
              <mxPoint x="905" y="390" />
            </Array>
          </mxGeometry>
        </mxCell>
        <mxCell id="XMl_mr6YjIk043C_CZg--55" style="edgeStyle=orthogonalEdgeStyle;rounded=0;orthogonalLoop=1;jettySize=auto;html=1;fillColor=#dae8fc;strokeColor=#6c8ebf;" edge="1" parent="dNxyNK7c78bLwvsdeMH5-11" source="XMl_mr6YjIk043C_CZg--53" target="XMl_mr6YjIk043C_CZg--51">
          <mxGeometry relative="1" as="geometry" />
        </mxCell>
        <UserObject label="Video Generation" name="Alison Donovan" position="System Admin" location="Office 3" email="me@example.com" placeholders="1" link="https://www.draw.io" id="XMl_mr6YjIk043C_CZg--53">
          <mxCell style="label;image=https://cdn3.iconfinder.com/data/icons/user-avatars-1/512/users-2-128.png;whiteSpace=wrap;html=1;rounded=0;glass=0;" vertex="1" parent="dNxyNK7c78bLwvsdeMH5-11">
            <mxGeometry x="680" y="270" width="180" height="80" as="geometry" />
          </mxCell>
        </UserObject>
        <mxCell id="XMl_mr6YjIk043C_CZg--54" value="&lt;span style=&quot;background-color: initial;&quot;&gt;Use the &lt;/span&gt;&lt;code style=&quot;background-color: initial;&quot;&gt;ffmpeg_kit_flutter&lt;/code&gt;&lt;span style=&quot;background-color: initial;&quot;&gt; package to handle video generation. FFmpeg is powerful for video processing, and this package lets you run FFmpeg commands in Flutter.&lt;/span&gt;" style="whiteSpace=wrap;html=1;aspect=fixed;" vertex="1" parent="dNxyNK7c78bLwvsdeMH5-11">
          <mxGeometry x="800" y="430" width="210" height="210" as="geometry" />
        </mxCell>
        <mxCell id="XMl_mr6YjIk043C_CZg--56" value="Using Flutter for all development. Have to use Xcode for compiling to iOS.&lt;div&gt;1. Update MacOSX to latest version&lt;/div&gt;&lt;div&gt;2. Update XCode to latest version&lt;br&gt;&lt;div&gt;&lt;div&gt;https://docs.flutter.dev/get-started/install/macos/mobile-ios&lt;/div&gt;&lt;/div&gt;&lt;/div&gt;" style="rounded=0;whiteSpace=wrap;html=1;" vertex="1" parent="dNxyNK7c78bLwvsdeMH5-11">
          <mxGeometry x="540" y="50" width="340" height="80" as="geometry" />
        </mxCell>
        <mxCell id="XMl_mr6YjIk043C_CZg--25" value="Orgchart" style="swimlane;html=1;startSize=20;horizontal=1;containerType=tree;glass=0;direction=south;" vertex="1" parent="1">
          <mxGeometry x="-1370" y="140" width="990" height="690" as="geometry" />
        </mxCell>
        <UserObject label="User Flow/ Implementation Stack" name="Tessa Miller" position="CFO" location="Office 1" email="me@example.com" placeholders="1" link="https://www.draw.io" id="XMl_mr6YjIk043C_CZg--26">
          <mxCell style="label;image=https://cdn3.iconfinder.com/data/icons/user-avatars-1/512/users-3-128.png;whiteSpace=wrap;html=1;rounded=0;glass=0;treeMoving=1;treeFolding=1;" vertex="1" parent="XMl_mr6YjIk043C_CZg--25">
            <mxGeometry x="420" y="40" width="200" height="70" as="geometry" />
          </mxCell>
        </UserObject>
        <mxCell id="XMl_mr6YjIk043C_CZg--35" style="edgeStyle=orthogonalEdgeStyle;rounded=0;orthogonalLoop=1;jettySize=auto;html=1;entryX=0.25;entryY=1;entryDx=0;entryDy=0;" edge="1" parent="XMl_mr6YjIk043C_CZg--25" source="XMl_mr6YjIk043C_CZg--33" target="XMl_mr6YjIk043C_CZg--26">
          <mxGeometry relative="1" as="geometry">
            <Array as="points">
              <mxPoint x="130" y="140" />
              <mxPoint x="470" y="140" />
            </Array>
          </mxGeometry>
        </mxCell>
        <mxCell id="XMl_mr6YjIk043C_CZg--33" value="Sign Up" style="whiteSpace=wrap;html=1;aspect=fixed;" vertex="1" parent="XMl_mr6YjIk043C_CZg--25">
          <mxGeometry x="90" y="200" width="80" height="80" as="geometry" />
        </mxCell>
        <mxCell id="XMl_mr6YjIk043C_CZg--36" style="edgeStyle=orthogonalEdgeStyle;rounded=0;orthogonalLoop=1;jettySize=auto;html=1;entryX=0.5;entryY=1;entryDx=0;entryDy=0;" edge="1" parent="XMl_mr6YjIk043C_CZg--25" source="XMl_mr6YjIk043C_CZg--34" target="XMl_mr6YjIk043C_CZg--26">
          <mxGeometry relative="1" as="geometry">
            <Array as="points">
              <mxPoint x="373" y="160" />
              <mxPoint x="510" y="160" />
            </Array>
          </mxGeometry>
        </mxCell>
        <mxCell id="XMl_mr6YjIk043C_CZg--34" value="Video Generation" style="whiteSpace=wrap;html=1;aspect=fixed;" vertex="1" parent="XMl_mr6YjIk043C_CZg--25">
          <mxGeometry x="223" y="200" width="80" height="80" as="geometry" />
        </mxCell>
        <mxCell id="XMl_mr6YjIk043C_CZg--38" style="edgeStyle=orthogonalEdgeStyle;rounded=0;orthogonalLoop=1;jettySize=auto;html=1;entryX=0.75;entryY=1;entryDx=0;entryDy=0;" edge="1" parent="XMl_mr6YjIk043C_CZg--25" source="XMl_mr6YjIk043C_CZg--37" target="XMl_mr6YjIk043C_CZg--26">
          <mxGeometry relative="1" as="geometry" />
        </mxCell>
        <mxCell id="XMl_mr6YjIk043C_CZg--37" value="Sign Up" style="whiteSpace=wrap;html=1;aspect=fixed;" vertex="1" parent="XMl_mr6YjIk043C_CZg--25">
          <mxGeometry x="520" y="210" width="80" height="80" as="geometry" />
        </mxCell>
      </root>
    </mxGraphModel>
  </diagram>
</mxfile>
